<svg width="42" height="42" viewBox="0 0 42 42" fill="none" xmlns="http://www.w3.org/2000/svg">
<g id="24 / basic / circle-star">
<path id="icon" fill-rule="evenodd" clip-rule="evenodd" d="M1.75 20.9995C1.75 31.631 10.3685 40.2495 21 40.2495C31.6315 40.2495 40.25 31.631 40.25 20.9995C40.25 10.368 31.6315 1.74951 21 1.74951C10.3685 1.74951 1.75 10.368 1.75 20.9995ZM36.75 20.9995C36.75 29.698 29.6985 36.7495 21 36.7495C12.3015 36.7495 5.25 29.698 5.25 20.9995C5.25 12.301 12.3015 5.24952 21 5.24952C29.6985 5.24952 36.75 12.301 36.75 20.9995ZM13.268 31.3916L14.7446 22.7819L8.4893 16.6844L17.134 15.4283L21 7.59487L24.866 15.4283L33.5107 16.6844L27.2553 22.7819L28.732 31.3916L21 27.3266L13.268 31.3916ZM23.4947 21.5593L24.0836 24.9929L21 23.3718L17.9165 24.9929L18.5054 21.5593L16.0107 19.1276L19.4582 18.6267L21 15.5027L22.5418 18.6267L25.9893 19.1276L23.4947 21.5593Z" fill="#0035C2"/>
</g>
</svg>
