<svg width="42" height="42" viewBox="0 0 42 42" fill="none" xmlns="http://www.w3.org/2000/svg">
<g id="24 / basic / user">
<path id="icon" fill-rule="evenodd" clip-rule="evenodd" d="M21 40.2495C10.3685 40.2495 1.75 31.631 1.75 20.9995C1.75 10.368 10.3685 1.74951 21 1.74951C31.6315 1.74951 40.25 10.368 40.25 20.9995C40.25 31.631 31.6315 40.2495 21 40.2495ZM33.9491 29.9676C35.7151 27.4226 36.75 24.3319 36.75 20.9995C36.75 12.301 29.6985 5.24952 21 5.24952C12.3015 5.24952 5.25 12.301 5.25 20.9995C5.25 24.3319 6.28492 27.4226 8.05089 29.9677C10.0204 27.3661 14.6486 26.2495 21 26.2495C27.3514 26.2495 31.9796 27.3661 33.9491 29.9676ZM31.4382 32.7941C30.926 30.9524 27.2464 29.7495 21 29.7495C14.7536 29.7495 11.074 30.9524 10.5618 32.7941C13.3408 35.2553 16.9959 36.7495 21 36.7495C25.0041 36.7495 28.6592 35.2553 31.4382 32.7941ZM21 10.4995C16.7634 10.4995 14 13.5721 14 17.4995C14 23.4974 17.0815 26.2495 21 26.2495C24.8817 26.2495 28 23.5888 28 17.8495C28 13.8623 25.2248 10.4995 21 10.4995ZM17.5 17.4995C17.5 21.4707 18.9319 22.7495 21 22.7495C23.061 22.7495 24.5 21.5217 24.5 17.8495C24.5 15.6627 23.1274 13.9995 21 13.9995C18.784 13.9995 17.5 15.4272 17.5 17.4995Z" fill="#0035C2"/>
</g>
</svg>
