<svg width="42" height="42" viewBox="0 0 42 42" fill="none" xmlns="http://www.w3.org/2000/svg">
<g id="24 / shopping / bag">
<path id="icon" fill-rule="evenodd" clip-rule="evenodd" d="M36.6554 3.49951L38.3946 34.8054C38.5018 36.7354 37.0242 38.3869 35.0941 38.4941C34.9973 38.4986 34.9971 38.4986 34.9004 38.4995H34.9003H34.9H7.09985C5.16686 38.4995 3.59985 36.9325 3.59985 34.9995C3.60075 34.9024 3.60075 34.9024 3.60524 34.8054L5.34446 3.49951H36.6554ZM8.6554 6.99961L7.09985 34.9996H34.9L33.3445 6.99961H8.6554ZM15.7499 10.4994H12.2499V14.8744C12.2499 19.0756 16.3156 22.7494 20.9999 22.7494C25.6843 22.7494 29.7499 19.0756 29.7499 14.8744V10.4994H26.2499V14.8744C26.2499 17.0591 23.8259 19.2494 20.9999 19.2494C18.1739 19.2494 15.7499 17.0591 15.7499 14.8744V10.4994Z" fill="#0035C2"/>
</g>
</svg>
