<svg width="52" height="52" viewBox="0 0 52 52" fill="none" xmlns="http://www.w3.org/2000/svg">
<g id="24 / shopping / coupon">
<path id="icon" fill-rule="evenodd" clip-rule="evenodd" d="M49.8334 39C49.8334 41.3933 47.8933 43.3334 45.5001 43.3334H6.50008C4.10685 43.3334 2.16675 41.3933 2.16675 39V32.2575L3.24851 31.6318C5.24585 30.4764 6.50008 28.3486 6.50008 26C6.50008 23.6514 5.24585 21.5237 3.24851 20.3683L2.16675 19.7425V13C2.16675 10.6068 4.10685 8.66669 6.50008 8.66669H45.5001C47.8933 8.66669 49.8334 10.6068 49.8334 13V19.7425L48.7517 20.3683C46.7543 21.5237 45.5001 23.6514 45.5001 26C45.5001 28.3486 46.7543 30.4764 48.7517 31.6318L49.8334 32.2575V39ZM41.1667 26.0002C41.1667 22.5324 42.8112 19.3494 45.5001 17.3324V13.0002H32.5001C32.4999 14.1966 31.5299 15.1665 30.3334 15.1665C29.1369 15.1665 28.167 14.1966 28.1667 13.0002H6.50008V17.3324C9.18893 19.3494 10.8334 22.5324 10.8334 26.0002C10.8334 29.468 9.18893 32.651 6.50008 34.668V39.0002H28.1667V38.9998C28.1667 37.8032 29.1368 36.8331 30.3334 36.8331C31.53 36.8331 32.5001 37.8032 32.5001 38.9998V39.0002H45.5001V34.668C42.8112 32.651 41.1667 29.468 41.1667 26.0002ZM30.3334 34.6665C31.53 34.6665 32.5001 33.6965 32.5001 32.4998C32.5001 31.3032 31.53 30.3332 30.3334 30.3332C29.1368 30.3332 28.1667 31.3032 28.1667 32.4998C28.1667 33.6965 29.1368 34.6665 30.3334 34.6665ZM32.5001 25.9998C32.5001 27.1965 31.53 28.1665 30.3334 28.1665C29.1368 28.1665 28.1667 27.1965 28.1667 25.9998C28.1667 24.8032 29.1368 23.8332 30.3334 23.8332C31.53 23.8332 32.5001 24.8032 32.5001 25.9998ZM30.3334 21.6665C31.53 21.6665 32.5001 20.6964 32.5001 19.4998C32.5001 18.3032 31.53 17.3332 30.3334 17.3332C29.1368 17.3332 28.1667 18.3032 28.1667 19.4998C28.1667 20.6964 29.1368 21.6665 30.3334 21.6665Z" fill="#FFB440"/>
</g>
</svg>
