<svg width="52" height="52" viewBox="0 0 52 52" fill="none" xmlns="http://www.w3.org/2000/svg">
<g id="24 / shopping / delivery">
<path id="icon" fill-rule="evenodd" clip-rule="evenodd" d="M35.4943 15.1671L39.4861 23.1507L45.5001 27.16V34.6671H42.9636C42.0713 32.1425 39.6636 30.3337 36.8334 30.3337C34.0032 30.3337 31.5954 32.1426 30.7032 34.6673H21.297C20.4047 32.1426 17.997 30.3337 15.1667 30.3337C12.3366 30.3337 9.92891 32.1425 9.0366 34.6671H6.50008V15.1671H35.4943ZM45.5001 39.0004H42.9635C42.0712 41.525 39.6635 43.3337 36.8334 43.3337C34.0034 43.3337 31.5957 41.5251 30.7034 39.0006H21.2968C20.4044 41.5251 17.9968 43.3337 15.1667 43.3337C12.3366 43.3337 9.92894 41.525 9.03662 39.0004H6.50008C4.10685 39.0004 2.16675 37.0603 2.16675 34.6671V15.1671C2.16675 12.7738 4.10685 10.8337 6.50008 10.8337H35.4943C37.1357 10.8337 38.6362 11.7611 39.3702 13.2291L42.8473 20.1835L49.8334 24.8408V34.6671C49.8334 37.0603 47.8933 39.0004 45.5001 39.0004ZM17.3334 36.834C17.3334 38.0306 16.3634 39.0006 15.1667 39.0006C13.9701 39.0006 13.0001 38.0306 13.0001 36.834C13.0001 35.6373 13.9701 34.6673 15.1667 34.6673C16.3634 34.6673 17.3334 35.6373 17.3334 36.834ZM39.0001 36.834C39.0001 38.0306 38.03 39.0006 36.8334 39.0006C35.6368 39.0006 34.6667 38.0306 34.6667 36.834C34.6667 35.6373 35.6368 34.6673 36.8334 34.6673C38.03 34.6673 39.0001 35.6373 39.0001 36.834Z" fill="#FFB440"/>
</g>
</svg>
