<svg width="52" height="52" viewBox="0 0 52 52" fill="none" xmlns="http://www.w3.org/2000/svg">
<g id="24 / shopping / discount">
<path id="icon" fill-rule="evenodd" clip-rule="evenodd" d="M26.0001 49.8334C12.8373 49.8334 2.16675 39.1629 2.16675 26.0001C2.16675 12.8373 12.8373 2.16675 26.0001 2.16675C39.1629 2.16675 49.8334 12.8373 49.8334 26.0001C49.8334 39.1629 39.1629 49.8334 26.0001 49.8334ZM26.0001 45.5003C36.7696 45.5003 45.5001 36.7698 45.5001 26.0002C45.5001 15.2307 36.7696 6.50025 26.0001 6.50025C15.2305 6.50025 6.50008 15.2307 6.50008 26.0002C6.50008 36.7698 15.2305 45.5003 26.0001 45.5003ZM28.1667 32.5003C28.1667 36.0901 31.0769 39.0003 34.6668 39.0003C38.2566 39.0003 41.1668 36.0901 41.1668 32.5003C41.1668 28.9104 38.2566 26.0003 34.6668 26.0003C31.0769 26.0003 28.1667 28.9104 28.1667 32.5003ZM34.6667 34.6666C35.8634 34.6666 36.8334 33.6965 36.8334 32.4999C36.8334 31.3033 35.8634 30.3333 34.6667 30.3333C33.4701 30.3333 32.5001 31.3033 32.5001 32.4999C32.5001 33.6965 33.4701 34.6666 34.6667 34.6666ZM10.8334 19.5003C10.8334 23.0901 13.7436 26.0003 17.3334 26.0003C20.9233 26.0003 23.8334 23.0901 23.8334 19.5003C23.8334 15.9104 20.9233 13.0003 17.3334 13.0003C13.7436 13.0003 10.8334 15.9104 10.8334 19.5003ZM17.3334 21.6666C18.53 21.6666 19.5001 20.6965 19.5001 19.4999C19.5001 18.3033 18.53 17.3332 17.3334 17.3332C16.1368 17.3332 15.1667 18.3033 15.1667 19.4999C15.1667 20.6965 16.1368 21.6666 17.3334 21.6666ZM34.9225 13.0003H30.0777L17.0777 39.0003H21.9225L34.9225 13.0003Z" fill="#FFB440"/>
</g>
</svg>
