<svg width="52" height="52" viewBox="0 0 52 52" fill="none" xmlns="http://www.w3.org/2000/svg">
<g id="24 / shopping / gift">
<path id="icon" fill-rule="evenodd" clip-rule="evenodd" d="M11.9102 15.1671C11.1991 14.0044 10.8333 12.5733 10.8333 10.8337C10.8333 7.40409 13.4123 4.33374 17.3333 4.33374C21.2592 4.33374 24.4253 6.96327 25.9999 11.0804C27.5745 6.96327 30.7406 4.33374 34.6666 4.33374C38.5875 4.33374 41.1666 7.40409 41.1666 10.8337C41.1666 12.5733 40.8008 14.0044 40.0897 15.1671H43.3333C45.7265 15.1671 47.6666 17.1072 47.6666 19.5004V23.8337C47.6666 26.227 45.7265 28.1671 43.3333 28.1671V43.3337C43.3333 45.727 41.3932 47.6671 38.9999 47.6671H12.9999C10.6067 47.6671 8.66659 45.727 8.66659 43.3337V28.1671C6.27335 28.1671 4.33325 26.227 4.33325 23.8337V19.5004C4.33325 17.1072 6.27335 15.1671 8.66659 15.1671H11.9102ZM23.8333 19.5002H8.66659V23.8336H23.8333V19.5002ZM43.3332 23.8336H28.1666V19.5002H43.3332V23.8336ZM23.8333 43.3339V28.1672H12.9999V43.3339H23.8333ZM38.9999 43.3339H28.1666V28.1672H38.9999V43.3339ZM17.3333 8.66724C15.9892 8.66724 15.1666 9.64649 15.1666 10.8339C15.1666 13.5492 17.3701 14.8403 22.597 15.112C22.0161 11.0757 19.8513 8.66724 17.3333 8.66724ZM29.2499 15.112C29.8308 11.0757 31.9956 8.66724 34.5137 8.66724C35.8578 8.66724 36.6803 9.64649 36.6803 10.8339C36.6803 13.5492 34.4768 14.8403 29.2499 15.112Z" fill="#FFB440"/>
</g>
</svg>
