<svg width="52" height="52" viewBox="0 0 52 52" fill="none" xmlns="http://www.w3.org/2000/svg">
<g id="24 / shopping / tote">
<path id="icon" fill-rule="evenodd" clip-rule="evenodd" d="M15.2395 13.0004C15.8764 8.26665 20.6071 4.33374 26 4.33374C31.3929 4.33374 36.1236 8.26665 36.7605 13.0004H43.0018C45.395 13.0004 47.3351 14.9405 47.3351 17.3337C47.3351 17.5388 47.3206 17.7436 47.2916 17.9466L43.5773 43.9466C43.2723 46.0814 41.444 47.6671 39.2875 47.6671H12.7125C10.556 47.6671 8.72767 46.0814 8.4227 43.9466L4.70841 17.9466C4.36996 15.5774 6.01619 13.3824 8.38537 13.044C8.58835 13.015 8.79314 13.0004 8.99819 13.0004H15.2395ZM32.3437 13.0006C31.685 10.6997 29.029 8.66724 26 8.66724C22.9709 8.66724 20.3149 10.6997 19.6562 13.0006H32.3437ZM8.99818 17.3338H15.1667V21.6671H19.5V17.3338H32.5V21.6671H36.8333V17.3338H43.0018L39.2875 43.3338H12.7125L8.99818 17.3338Z" fill="#FFB440"/>
</g>
</svg>
