<svg width="24" height="24" viewBox="0 0 24 24" fill="none" xmlns="http://www.w3.org/2000/svg">
<g id="24 / symbols / facebook">
<path id="icon" fill-rule="evenodd" clip-rule="evenodd" d="M4 2.00049H20C21.1046 2.00049 22 2.89592 22 4.00049V20.0005C22 21.1051 21.1046 22.0005 20 22.0005H4C2.89543 22.0005 2 21.1051 2 20.0005V4.00049C2 2.89592 2.89543 2.00049 4 2.00049ZM4.00001 4.00092V20.0009H20V4.00092H4.00001ZM11.1331 12.0045H13V18.0001H15V12.0045H16.9824V10.0045H15V9.00013C15 8.44784 15.4477 8.00013 16 8.00013H17V6.00013H16C14.3432 6.00013 13 7.34327 13 9.00013V10.0045H11.1331V12.0045Z" fill="black" fill-opacity="0.3"/>
</g>
</svg>
