<svg width="24" height="24" viewBox="0 0 24 24" fill="none" xmlns="http://www.w3.org/2000/svg">
<g id="24 / symbols / instagram">
<path id="icon" fill-rule="evenodd" clip-rule="evenodd" d="M16 2.00049H8C4.68629 2.00049 2 4.68678 2 8.00049V16.0005C2 19.3142 4.68629 22.0005 8 22.0005H16C19.3137 22.0005 22 19.3142 22 16.0005V8.00049C22 4.68678 19.3137 2.00049 16 2.00049ZM4.00001 8.00092C4.00001 5.79178 5.79087 4.00092 8.00001 4.00092H16C18.2091 4.00092 20 5.79178 20 8.00092V16.0009C20 18.2101 18.2091 20.0009 16 20.0009H8.00001C5.79087 20.0009 4.00001 18.2101 4.00001 16.0009V8.00092ZM12 17.001C9.23859 17.001 7.00001 14.7624 7.00001 12.001C7.00001 9.23953 9.23859 7.00095 12 7.00095C14.7614 7.00095 17 9.23953 17 12.001C17 14.7624 14.7614 17.001 12 17.001ZM12 15C13.6568 15 15 13.6569 15 12C15 10.3432 13.6568 9.00002 12 9.00002C10.3431 9.00002 8.99999 10.3432 8.99999 12C8.99999 13.6569 10.3431 15 12 15ZM18 7.00013C18 7.55241 17.5523 8.00013 17 8.00013C16.4477 8.00013 16 7.55241 16 7.00013C16 6.44784 16.4477 6.00013 17 6.00013C17.5523 6.00013 18 6.44784 18 7.00013Z" fill="black" fill-opacity="0.3"/>
</g>
</svg>
