<svg width="24" height="24" viewBox="0 0 24 24" fill="none" xmlns="http://www.w3.org/2000/svg">
<g id="24 / symbols / twitter">
<path id="icon" fill-rule="evenodd" clip-rule="evenodd" d="M21.1195 4.50876L22.5343 4.67398L21.8983 5.94849C21.5882 6.57001 21.2778 7.19154 20.967 7.81307C20.9302 7.94471 20.8654 8.06011 20.7697 8.21036C20.7296 8.27314 20.5929 8.47284 20.5865 8.48243C20.5504 8.53657 20.5237 8.57926 20.5045 8.61347V11.002C20.5045 17.114 14.5895 20.9979 9.00354 20.9979C7.86051 20.9979 6.99207 20.9431 5.99765 20.7261C4.36115 20.369 3.14327 19.6591 2.58597 18.4185L2.01221 17.1412L3.40659 17.0129C4.66801 16.8969 5.76169 16.6566 6.60159 16.3348C4.29577 15.964 3.0036 14.9513 3.0036 13.0494V12.0494H4.0036C4.22331 12.0494 4.42143 12.0315 4.59854 11.9988C2.868 10.9641 2.00122 9.30428 2.00122 7.00201C2.00103 6.90388 2.00103 6.90388 2.00044 6.79896C1.99394 5.63851 2.05627 5.01845 2.37395 4.22708C2.57754 3.7199 2.87183 3.25037 3.2679 2.82016L4.02251 2.00049L4.75617 2.83896C7.17394 5.6021 9.56395 7.27844 12.0042 7.48121C12.0146 4.93154 13.9415 3.00201 16.5043 3.00201C17.6991 3.00201 18.7828 3.4555 19.6345 4.27321C20.1006 4.369 20.5957 4.44758 21.1195 4.50876ZM18.9087 6.16301L18.6021 6.09359L18.3904 5.86127C17.8785 5.29954 17.2359 5.00251 16.5043 5.00251C15.0414 5.00251 14.0041 6.0449 14.0041 7.50251C14.0041 7.74073 13.998 7.89041 13.9683 8.08714C13.8499 8.87216 13.4096 9.50251 12.5041 9.50251C9.50608 9.50251 6.80137 7.89641 4.1639 5.15327C4.02793 5.5666 3.99596 5.99146 4.00042 6.78826C4.00102 6.89483 4.00102 6.89483 4.00123 7.00251C4.00123 9.05052 4.83095 10.1708 6.79548 10.7952L7.49256 11.0167V11.7482C7.49256 12.6352 6.65223 13.4701 5.42269 13.8441C5.98632 14.2718 7.13901 14.5025 9.0039 14.5025H10.0039V15.5025C10.0039 16.9353 8.35763 18.0571 5.87076 18.6429C6.68179 18.8913 7.76167 18.9984 9.00355 18.9984C13.618 18.9984 18.5045 15.7898 18.5045 11.0025V8.50251C18.5045 8.20873 18.5897 7.95373 18.7312 7.68858C18.7865 7.58492 18.8474 7.48609 18.9225 7.37336C18.9367 7.35215 18.9892 7.27525 19.0309 7.21378L19.1101 7.05528C19.2386 6.79844 19.3669 6.5416 19.4953 6.28476C19.2958 6.24698 19.1003 6.2064 18.9087 6.16301Z" fill="black" fill-opacity="0.3"/>
</g>
</svg>
