<svg width="222" height="70" viewBox="0 0 222 70" fill="none" xmlns="http://www.w3.org/2000/svg">
<path d="M80 46.3182C85.6818 46.3182 89.0455 42.6818 89.0455 37.3182C89.0455 31.9545 85.6818 28.3182 80 28.3182C74.3182 28.3182 70.9545 31.9545 70.9545 37.3182C70.9545 42.6818 74.3182 46.3182 80 46.3182ZM80.0455 41.6818C78.3636 41.6818 77.3636 40.0114 77.3636 37.2727C77.3636 34.5341 78.3636 32.8636 80.0455 32.8636C81.6364 32.8636 82.6364 34.5341 82.6364 37.2727C82.6364 40.0114 81.6364 41.6818 80.0455 41.6818ZM91.5909 46H97.8636V35.8182C97.8636 34.2955 98.6591 33.3636 99.9545 33.3636C101.25 33.3636 102.091 34.2955 102.091 35.8182V46H108.091V35.8182C108.091 34.2955 108.886 33.3636 110.182 33.3636C111.477 33.3636 112.318 34.2955 112.318 35.8182V46H118.591V34.2273C118.591 30.6477 116.295 28.3182 112.955 28.3182C110.364 28.3182 108.273 29.7273 107.682 31.8636H107.5C107.136 29.7273 105.182 28.3182 102.727 28.3182C100.307 28.3182 98.4545 29.6818 97.7273 31.8636H97.5455V28.5455H91.5909V46ZM121.685 46H127.957V35.8182C127.957 34.2955 128.753 33.3636 130.048 33.3636C131.344 33.3636 132.185 34.2955 132.185 35.8182V46H138.185V35.8182C138.185 34.2955 138.98 33.3636 140.276 33.3636C141.571 33.3636 142.412 34.2955 142.412 35.8182V46H148.685V34.2273C148.685 30.6477 146.389 28.3182 143.048 28.3182C140.457 28.3182 138.366 29.7273 137.776 31.8636H137.594C137.23 29.7273 135.276 28.3182 132.821 28.3182C130.401 28.3182 128.548 29.6818 127.821 31.8636H127.639V28.5455H121.685V46ZM160.142 46.3182C164.983 46.3182 168.097 44 168.688 40.3636H162.96C162.597 41.3523 161.562 41.9091 160.278 41.9091C158.415 41.9091 157.324 40.6818 157.324 39V38.7273H168.688V37.2727C168.688 31.7159 165.278 28.3182 160.006 28.3182C154.597 28.3182 151.142 31.9091 151.142 37.3182C151.142 42.9659 154.551 46.3182 160.142 46.3182ZM157.324 35.2727C157.358 33.7614 158.608 32.7273 160.142 32.7273C161.699 32.7273 162.881 33.7727 162.915 35.2727H157.324ZM171.247 46H177.52V36.9091C177.52 34.9091 178.895 33.5909 180.747 33.5909C181.395 33.5909 182.44 33.6932 183.065 33.9091V28.5568C182.565 28.4091 182.02 28.3182 181.474 28.3182C179.611 28.3182 178.156 29.4091 177.52 31.8636H177.338V28.5455H171.247V46ZM192.531 46.3182C197.702 46.3182 200.872 43.3523 200.94 38.7273H195.122C194.986 40.5568 193.997 41.5455 192.622 41.5455C190.974 41.5455 189.895 40.1364 189.895 37.2727C189.895 34.4091 190.974 33 192.622 33C194.009 33 194.952 33.9886 195.122 35.8182H200.94C200.906 31.2727 197.668 28.3182 192.531 28.3182C186.849 28.3182 183.486 31.9545 183.486 37.3182C183.486 42.6818 186.849 46.3182 192.531 46.3182ZM211.892 46.3182C216.733 46.3182 219.847 44 220.438 40.3636H214.71C214.347 41.3523 213.312 41.9091 212.028 41.9091C210.165 41.9091 209.074 40.6818 209.074 39V38.7273H220.438V37.2727C220.438 31.7159 217.028 28.3182 211.756 28.3182C206.347 28.3182 202.892 31.9091 202.892 37.3182C202.892 42.9659 206.301 46.3182 211.892 46.3182ZM209.074 35.2727C209.108 33.7614 210.358 32.7273 211.892 32.7273C213.449 32.7273 214.631 33.7727 214.665 35.2727H209.074Z" fill="#091D69"/>
<circle cx="35" cy="35" r="35" fill="#0035C2"/>
<path d="M17.9545 46.3182C22.7955 46.3182 25.9091 44 26.5 40.3636H20.7727C20.4091 41.3523 19.375 41.9091 18.0909 41.9091C16.2273 41.9091 15.1364 40.6818 15.1364 39V38.7273H26.5V37.2727C26.5 31.7159 23.0909 28.3182 17.8182 28.3182C12.4091 28.3182 8.95455 31.9091 8.95455 37.3182C8.95455 42.9659 12.3636 46.3182 17.9545 46.3182ZM15.1364 35.2727C15.1705 33.7614 16.4205 32.7273 17.9545 32.7273C19.5114 32.7273 20.6932 33.7727 20.7273 35.2727H15.1364ZM40.5142 34.3636H29.6051V39.0909H40.5142V34.3636ZM52.6562 46.3182C57.8267 46.3182 60.9972 43.3523 61.0653 38.7273H55.2472C55.1108 40.5568 54.1222 41.5455 52.7472 41.5455C51.0994 41.5455 50.0199 40.1364 50.0199 37.2727C50.0199 34.4091 51.0994 33 52.7472 33C54.1335 33 55.0767 33.9886 55.2472 35.8182H61.0653C61.0312 31.2727 57.7926 28.3182 52.6562 28.3182C46.9744 28.3182 43.6108 31.9545 43.6108 37.3182C43.6108 42.6818 46.9744 46.3182 52.6562 46.3182Z" fill="#FCFCFC"/>
</svg>
